<svg width="735" height="2024" xmlns="http://www.w3.org/2000/svg" xmlns:xlink="http://www.w3.org/1999/xlink" xml:space="preserve" overflow="hidden"><defs><clipPath id="clip0"><rect x="1519" y="311" width="735" height="2024"/></clipPath></defs><g clip-path="url(#clip0)" transform="translate(-1519 -311)"><path d="M1519 2195C1519 2179.54 1531.54 2167 1547 2167L2226 2167C2241.46 2167 2254 2179.54 2254 2195L2254 2307C2254 2322.46 2241.46 2335 2226 2335L1547 2335C1531.54 2335 1519 2322.46 1519 2307Z" fill="#7F7F7F" fill-rule="evenodd"/><path d="M1519 433.503C1519 365.847 1573.85 311 1641.5 311L2131.5 311C2199.15 311 2254 365.847 2254 433.503L2254 2044.5C2254 2112.15 2199.15 2167 2131.5 2167L1641.5 2167C1573.85 2167 1519 2112.15 1519 2044.5Z" fill="#7F7F7F" fill-rule="evenodd"/><path d="M1750 501.833C1750 489.223 1760.22 479 1772.83 479L1864.17 479C1876.78 479 1887 489.223 1887 501.833L1887 1826.17C1887 1838.78 1876.78 1849 1864.17 1849L1772.83 1849C1760.22 1849 1750 1838.78 1750 1826.17Z" fill="#FFFFFF" fill-rule="evenodd"/></g></svg>