<?xml version="1.0" encoding="UTF-8"?>
<svg id="_レイヤー_1" data-name="レイヤー 1" xmlns="http://www.w3.org/2000/svg" viewBox="0 0 206.67 201.18">
  <defs>
    <style>
      .cls-1 {
        fill: #5a5a5a;
      }

      .cls-2 {
        fill: #373ccd;
      }
    </style>
  </defs>
  <g>
    <path class="cls-1" d="m0,196.22v-40.77c0-3.97,1.26-5.23,5.86-5.23h31.3c11.46,0,21.29,1.53,21.29,15.52s-10.73,15.88-24.18,15.88c-3.07,0-21.02-.09-21.02-.09-1.8,0-2.71.81-2.71,2.8v11.91c0,3.16-.45,4.06-4.87,4.06h-.54c-4.78,0-5.14-.9-5.14-4.06Zm34.91-20.21c7.49-.18,12.36-1.8,12.36-10.46,0-9.29-6.04-10.1-14.88-10.1H13.26c-1.8,0-2.71.9-2.71,2.62v15.97c0,1.71.9,2.53,2.62,2.53l21.74-.54Z"/>
    <path class="cls-1" d="m74.07,200.28c-4.51,0-5.77-1.26-5.77-5.14v-40.77c0-3.16.36-4.15,5.14-4.15h.54c4.33,0,4.87.99,4.87,4.15v37.61c0,1.71.81,2.62,2.62,2.62h32.92c1.89,0,2.53.9,2.53,2.8,0,2.07-.63,2.89-2.53,2.89h-40.32Z"/>
    <path class="cls-1" d="m125.94,196.22v-41.85c0-3.16.36-4.15,5.14-4.15h.54c4.42,0,4.87.99,4.87,4.15v41.85c0,3.16-.45,4.06-4.87,4.06h-.54c-4.78,0-5.14-.9-5.14-4.06Z"/>
    <path class="cls-1" d="m153.81,199.47c-2.08-.36-2.62-1.08-2.62-3.25,0-2.89,1.44-2.98,3.88-2.62,4.24.63,12.09,1.71,21.47,1.71,11.37,0,20.03-.63,20.03-8.39,0-6.4-4.51-6.95-14.97-7.49l-5.5-.27c-15.15-.72-24.99-2.26-24.99-15.79s14.07-13.89,27.6-13.89c9.02,0,20.03,1.17,22.1,1.44,1.98.27,2.62,1.08,2.62,3.16s-.81,2.98-2.26,2.8c-2.25-.27-13.44-1.62-22.91-1.62-11.28,0-16.78.63-16.78,7.49s4.42,6.77,15.15,7.31l5.32.27c14.34.72,24.72,1.71,24.72,15.61,0,11.91-9.74,15.24-29.68,15.24-11.73,0-21.29-1.35-23.18-1.71Z"/>
  </g>
  <g>
    <path class="cls-2" d="m51.23,27.9v92.89c0,2.34,3.16,3.13,4.22,1.05,5.49-10.8,6.82-29.47,28.51-29.47,15.54,0,77.2.02,77.2-49.1,0-56.84-109.94-53.06-109.94-15.37Z"/>
    <circle class="cls-2" cx="91.53" cy="111.5" r="11.55"/>
  </g>
</svg>