<?xml version="1.0" encoding="UTF-8"?>
<svg id="_レイヤー_1" data-name="レイヤー 1" xmlns="http://www.w3.org/2000/svg" viewBox="0 0 362.83 177.46">
  <defs>
    <style>
      .cls-1 {
        fill: #fff;
      }

      .cls-2 {
        fill: #5a5a5a;
      }

      .cls-3 {
        fill: #373ccd;
      }
    </style>
  </defs>
  <rect class="cls-1" width="362.83" height="177.46"/>
  <g>
    <g>
      <path class="cls-3" d="m32.74,55.44v91.86c0,2.31,3.13,3.1,4.17,1.04,5.43-10.68,6.74-29.14,28.2-29.14,15.36,0,76.35.02,76.35-48.56,0-56.21-108.72-52.48-108.72-15.2Z"/>
      <circle class="cls-3" cx="72.6" cy="138.12" r="11.42"/>
    </g>
    <g>
      <path class="cls-2" d="m166.36,108.35v-33.23c0-3.23,1.03-4.26,4.78-4.26h25.51c9.34,0,17.35,1.25,17.35,12.65s-8.75,12.94-19.71,12.94c-2.5,0-17.13-.07-17.13-.07-1.47,0-2.21.66-2.21,2.28v9.71c0,2.57-.37,3.31-3.97,3.31h-.44c-3.9,0-4.19-.74-4.19-3.31Zm28.45-16.47c6.1-.15,10.07-1.47,10.07-8.53,0-7.57-4.93-8.23-12.13-8.23h-15.59c-1.47,0-2.21.74-2.21,2.13v13.01c0,1.4.74,2.06,2.13,2.06l17.72-.44Z"/>
      <path class="cls-2" d="m226.74,111.66c-3.68,0-4.71-1.03-4.71-4.19v-33.23c0-2.57.29-3.38,4.19-3.38h.44c3.53,0,3.97.81,3.97,3.38v30.66c0,1.4.66,2.13,2.13,2.13h26.84c1.54,0,2.06.74,2.06,2.28,0,1.69-.51,2.35-2.06,2.35h-32.87Z"/>
      <path class="cls-2" d="m269.02,108.35v-34.12c0-2.57.29-3.38,4.19-3.38h.44c3.6,0,3.97.81,3.97,3.38v34.12c0,2.57-.37,3.31-3.97,3.31h-.44c-3.9,0-4.19-.74-4.19-3.31Z"/>
      <path class="cls-2" d="m291.74,111c-1.69-.29-2.13-.88-2.13-2.65,0-2.35,1.18-2.43,3.16-2.13,3.46.51,9.85,1.4,17.5,1.4,9.26,0,16.32-.51,16.32-6.84,0-5.22-3.68-5.66-12.21-6.1l-4.48-.22c-12.35-.59-20.37-1.84-20.37-12.87s11.47-11.32,22.5-11.32c7.35,0,16.32.96,18.01,1.18,1.62.22,2.13.88,2.13,2.57s-.66,2.43-1.84,2.28c-1.84-.22-10.96-1.32-18.68-1.32-9.19,0-13.68.51-13.68,6.1s3.6,5.51,12.35,5.96l4.34.22c11.69.59,20.15,1.4,20.15,12.72,0,9.71-7.94,12.43-24.19,12.43-9.56,0-17.35-1.1-18.9-1.4Z"/>
    </g>
  </g>
</svg>